<svg xmlns="http://www.w3.org/2000/svg" version="1.1" xmlns:xlink="http://www.w3.org/1999/xlink" xmlns:svgjs="http://svgjs.dev/svgjs" width="1500" height="935" viewBox="0 0 1500 935"><g transform="matrix(1,0,0,1,-0.9090909090909918,0.3785425101214628)"><svg viewBox="0 0 396 247" data-background-color="#000000" preserveAspectRatio="xMidYMid meet" height="935" width="1500" xmlns="http://www.w3.org/2000/svg" xmlns:xlink="http://www.w3.org/1999/xlink"><g id="tight-bounds" transform="matrix(1,0,0,1,0.2400000000000091,-0.09999999999999432)"><svg viewBox="0 0 395.52 247.2" height="247.2" width="395.52"><g><svg></svg></g><g><svg viewBox="0 0 395.52 247.2" height="247.2" width="395.52"><g transform="matrix(1,0,0,1,78.46834285714284,47.21520000000001)"><svg viewBox="0 0 238.5833142857143 152.76959999999997" height="152.76959999999997" width="238.5833142857143"><g><svg viewBox="0 0 238.5833142857143 152.76959999999997" height="152.76959999999997" width="238.5833142857143"><g><svg viewBox="0 0 238.5833142857143 152.76959999999997" height="152.76959999999997" width="238.5833142857143"><g><svg viewBox="0 0 238.5833142857143 152.76959999999997" height="152.76959999999997" width="238.5833142857143"><g id="textblocktransform"><svg viewBox="0 0 238.5833142857143 152.76959999999997" height="152.76959999999997" width="238.5833142857143" id="textblock"><g><svg viewBox="0 0 238.5833142857143 152.76959999999997" height="152.76959999999997" width="238.5833142857143"><g transform="matrix(1,0,0,1,0,0)"><svg width="238.5833142857143" viewBox="-1.95 -35.5 56.300000000000004 36.05" height="152.76959999999997" data-palette-color="#89939e"><path d="M4.9 0.55L4.9 0.55Q2.75 0.55 1.05 0-0.65-0.55-1.95-1.65L-1.95-1.65-0.05-5.3Q0.7-4.65 2.23-4.08 3.75-3.5 5.75-3.5L5.75-3.5Q8.1-3.5 9.7-4.4 11.3-5.3 12.4-7.08 13.5-8.85 14.28-11.45 15.05-14.05 15.8-17.45L15.8-17.45 19.65-35.45 24.15-35.45 20.3-17.45Q19.45-13.4 18.35-10.1 17.25-6.8 15.6-4.4 13.95-2 11.35-0.73 8.75 0.55 4.9 0.55ZM24.6 0L32.15-35.5 46.25-35.5Q48.8-35.5 50.62-34.15 52.45-32.8 53.4-30.65 54.35-28.5 54.35-26.1L54.35-26.1Q54.35-23.7 53.35-21.33 52.35-18.95 50.6-17 48.85-15.05 46.55-13.9 44.25-12.75 41.65-12.75L41.65-12.75 31.8-12.75 29.1 0 24.6 0ZM32.65-16.75L42.25-16.75Q43.75-16.75 45.12-17.5 46.5-18.25 47.52-19.53 48.55-20.8 49.15-22.4 49.75-24 49.75-25.7L49.75-25.7Q49.75-27.4 49.15-28.7 48.55-30 47.5-30.75 46.45-31.5 45.1-31.5L45.1-31.5 35.8-31.5 32.65-16.75Z" opacity="1" transform="matrix(1,0,0,1,0,0)" fill="#89939e" class="wordmark-text-0" data-fill-palette-color="primary" id="text-0"></path></svg></g></svg></g></svg></g></svg></g></svg></g></svg></g></svg></g><g><path d="M0 123.6c0-68.262 55.338-123.6 123.6-123.6 30.402 0 58.24 10.976 79.768 29.183l-11.147 0c-19.26-14.022-42.974-22.294-68.621-22.295-64.458 0-116.712 52.254-116.712 116.712 0 64.458 52.254 116.712 116.712 116.712 25.647 0 49.361-8.272 68.621-22.295h11.147c-21.528 18.206-49.366 29.183-79.768 29.183-68.262 0-123.6-55.338-123.6-123.6z" fill="#89939e" stroke="transparent" data-fill-palette-color="tertiary"></path></g></svg></g><defs></defs></svg><rect width="395.52" height="247.2" fill="none" stroke="none" visibility="hidden"></rect></g></svg></g></svg>